<svg width="12" height="12" fill="none" xmlns="http://www.w3.org/2000/svg"><path d="M11.952 5.248a.983.983 0 00-.469-.72.965.965 0 00-.844-.074.481.481 0 01-.6-.27 4.443 4.443 0 00-.445-.774.478.478 0 01.067-.656.961.961 0 00.353-.766.981.981 0 00-.391-.765A5.99 5.99 0 008.329.476a.983.983 0 00-.861.043.961.961 0 00-.486.688c-.042.247-.271.413-.538.385a4.245 4.245 0 00-.887 0 .478.478 0 01-.538-.385.96.96 0 00-.486-.688.981.981 0 00-.861-.043 5.98 5.98 0 00-1.294.747.98.98 0 00-.391.764.964.964 0 00.353.768c.192.158.222.44.067.655a4.415 4.415 0 00-.446.775.482.482 0 01-.605.267.966.966 0 00-.839.077.98.98 0 00-.468.719 5.901 5.901 0 00-.001 1.505c.04.301.21.563.468.719a.967.967 0 00.845.075c.229-.088.493.032.6.269.121.272.271.533.445.775a.478.478 0 01-.067.656.961.961 0 00-.353.765.981.981 0 00.391.765 5.99 5.99 0 001.294.748.983.983 0 00.861-.044.961.961 0 00.486-.688c.042-.247.273-.412.538-.385.291.031.595.031.887 0 .268-.026.496.138.538.386a.96.96 0 00.486.687.98.98 0 00.861.043 6.01 6.01 0 001.293-.746.979.979 0 00.391-.765.963.963 0 00-.352-.767.478.478 0 01-.067-.655 4.45 4.45 0 00.446-.775.482.482 0 01.6-.27l.006.003a.962.962 0 00.838-.077.98.98 0 00.468-.72 5.951 5.951 0 00.001-1.504zm-.496 1.44a.483.483 0 01-.23.355.466.466 0 01-.411.035l-.003-.001a.982.982 0 00-1.229.535 3.924 3.924 0 01-.396.687c-.31.432-.243 1.006.156 1.334a.465.465 0 01.17.37.482.482 0 01-.193.377 5.46 5.46 0 01-1.186.684.487.487 0 01-.425-.02.464.464 0 01-.234-.332.967.967 0 00-.97-.807c-.038 0-.076.002-.114.005a3.795 3.795 0 01-.782 0 .969.969 0 00-1.083.8.463.463 0 01-.235.332.486.486 0 01-.426.02 5.48 5.48 0 01-1.185-.684.481.481 0 01-.193-.376.464.464 0 01.17-.37c.399-.329.466-.902.155-1.334a3.939 3.939 0 01-.395-.687.984.984 0 00-1.238-.531.463.463 0 01-.404-.037.481.481 0 01-.23-.355 5.363 5.363 0 010-1.377.483.483 0 01.23-.354.466.466 0 01.41-.035.982.982 0 001.232-.534 3.92 3.92 0 01.396-.686c.31-.432.243-1.006-.156-1.334a.465.465 0 01-.17-.37.482.482 0 01.193-.377A5.48 5.48 0 013.865.937a.485.485 0 01.426.02.46.46 0 01.234.332.97.97 0 001.083.8 3.95 3.95 0 01.784 0 .974.974 0 001.082-.8.463.463 0 01.235-.331.483.483 0 01.426-.021c.421.177.82.408 1.185.684.12.091.19.228.193.377a.464.464 0 01-.17.37c-.399.328-.466.902-.155 1.334.154.215.287.446.395.687a.984.984 0 001.238.531.463.463 0 01.405.037.483.483 0 01.23.354 5.419 5.419 0 010 1.378z" fill="#C4C4C4"/><path d="M6 3.5A2.503 2.503 0 003.5 6c0 1.379 1.121 2.5 2.5 2.5 1.378 0 2.5-1.121 2.5-2.5 0-1.378-1.122-2.5-2.5-2.5zM6 8c-1.103 0-2-.897-2-2s.897-2 2-2 2 .897 2 2-.897 2-2 2z" fill="#C4C4C4"/></svg>