<svg width="12" height="12" fill="none" xmlns="http://www.w3.org/2000/svg"><path d="M5.914 5.78c.795 0 1.482-.284 2.044-.846s.847-1.25.847-2.044S8.52 1.41 7.958.847A2.797 2.797 0 005.914 0C5.12 0 4.433.285 3.871.847a2.797 2.797 0 00-.847 2.043c0 .794.285 1.482.847 2.044s1.25.846 2.043.846zM4.368 1.344c.431-.431.937-.64 1.546-.64.61 0 1.116.209 1.547.64.43.431.64.937.64 1.546 0 .61-.21 1.115-.64 1.546a2.09 2.09 0 01-1.547.641 2.09 2.09 0 01-1.546-.64 2.089 2.089 0 01-.64-1.547c0-.61.209-1.115.64-1.546zm6.604 7.883a7.125 7.125 0 00-.098-.758 5.968 5.968 0 00-.186-.762 3.767 3.767 0 00-.313-.711 2.683 2.683 0 00-.473-.616 2.084 2.084 0 00-.679-.427 2.346 2.346 0 00-.866-.156c-.123 0-.241.05-.47.199a50.67 50.67 0 01-.49.315c-.157.1-.37.194-.633.28a2.514 2.514 0 01-.774.124c-.257 0-.518-.042-.775-.125a2.796 2.796 0 01-.632-.279 67.08 67.08 0 01-.49-.315c-.229-.15-.347-.2-.47-.2-.312 0-.603.053-.866.157a2.082 2.082 0 00-.68.427 2.68 2.68 0 00-.472.616c-.13.23-.235.468-.313.71a7.092 7.092 0 00-.284 1.52c-.016.23-.024.47-.024.71 0 .627.2 1.134.592 1.508.388.369.901.556 1.525.556H8.88c.624 0 1.137-.187 1.525-.556.393-.374.592-.881.592-1.508 0-.242-.008-.48-.024-.709zm-1.053 1.707c-.256.244-.596.363-1.04.363H3.101c-.444 0-.784-.119-1.04-.363-.251-.239-.373-.565-.373-.998 0-.225.007-.447.022-.66a6.395 6.395 0 01.252-1.355c.063-.196.148-.39.255-.578a1.97 1.97 0 01.347-.455c.12-.115.273-.21.452-.28.165-.066.351-.102.553-.108.025.014.069.039.14.085l.495.32c.208.132.476.251.795.354.327.106.66.16.99.16.332 0 .665-.054.992-.16.32-.103.587-.222.795-.355.188-.12.35-.225.495-.32.07-.045.115-.07.14-.084.202.006.388.042.553.107.18.071.331.166.452.281.129.123.246.277.347.455.107.187.193.382.255.578a6.309 6.309 0 01.252 1.355c.015.213.023.435.023.66 0 .433-.122.76-.374.998z" fill="#C4C4C4"/></svg>